<svg id="not_found" data-name="Not Found" xmlns="http://www.w3.org/2000/svg" viewBox="0 0 933.34 358.27"><defs><style>.cls-1{fill:#457bff;}.cls-2{fill:#4c76fa;}.cls-3{fill:#5271f4;}.cls-4{fill:#596cef;}.cls-5{fill:#6066e9;}.cls-6{fill:#6661e4;}.cls-7{fill:#6d5cdf;}.cls-8{fill:#7457d9;}.cls-9{fill:#7a52d4;}.cls-10{fill:#814dcf;}.cls-11{fill:#8848c9;}.cls-12{fill:#8e43c4;}.cls-13{fill:#953dbe;}.cls-14{fill:#9c38b9;}.cls-15{fill:#a233b4;}.cls-16{fill:#a92eae;}.cls-17{fill:#b029a9;}.cls-18{fill:#b624a4;}.cls-19{fill:#bd1f9e;}.cls-20{fill:#c41a99;}.cls-21{fill:#ca1594;}.cls-22{fill:#d10f8e;}.cls-23{fill:#d80a89;}.cls-24{fill:#de0583;}.cls-25{fill:#e5007e;}.cls-26{fill:#fff;}</style></defs><rect class="cls-1" x="52.47" y="52.47" width="253.33" height="253.33" transform="translate(-74.2 179.13) rotate(-45)"/><rect class="cls-2" x="77.9" y="53.04" width="252.14" height="252.14" transform="translate(-67.2 191.36) rotate(-43.87)"/><rect class="cls-3" x="103.28" y="53.56" width="251.05" height="251.05" transform="translate(-60.78 202.82) rotate(-42.73)"/><rect class="cls-4" x="128.62" y="54.03" width="250.06" height="250.06" transform="translate(-54.92 213.49) rotate(-41.59)"/><rect class="cls-5" x="153.9" y="54.46" width="249.17" height="249.17" transform="translate(-49.61 223.36) rotate(-40.43)"/><rect class="cls-6" x="179.13" y="54.83" width="248.38" height="248.38" transform="translate(-44.82 232.4) rotate(-39.27)"/><rect class="cls-7" x="204.31" y="55.15" width="247.69" height="247.69" transform="translate(-40.53 240.6) rotate(-38.1)"/><rect class="cls-8" x="229.44" y="55.42" width="247.11" height="247.11" transform="translate(-36.72 247.92) rotate(-36.92)"/><rect class="cls-9" x="254.52" y="55.63" width="246.63" height="246.63" transform="translate(-33.37 254.37) rotate(-35.74)"/><rect class="cls-10" x="279.54" y="55.79" width="246.26" height="246.26" transform="translate(-30.45 259.93) rotate(-34.55)"/><rect class="cls-11" x="304.51" y="55.9" width="246" height="246" transform="translate(-27.94 264.58) rotate(-33.36)"/><rect class="cls-12" x="329.43" y="55.96" width="245.84" height="245.84" transform="matrix(0.85, -0.53, 0.53, 0.85, -25.79, 268.31)"/><rect class="cls-13" x="354.3" y="55.96" width="245.78" height="245.78" transform="translate(-24 271.12) rotate(-30.98)"/><rect class="cls-14" x="379.11" y="55.91" width="245.84" height="245.84" transform="translate(-22.51 273.01) rotate(-29.79)"/><rect class="cls-15" x="403.87" y="55.81" width="246" height="246" transform="translate(-21.32 273.97) rotate(-28.59)"/><rect class="cls-16" x="428.57" y="55.66" width="246.26" height="246.26" transform="translate(-20.38 274) rotate(-27.4)"/><rect class="cls-17" x="453.22" y="55.45" width="246.63" height="246.63" transform="translate(-19.66 273.11) rotate(-26.22)"/><rect class="cls-18" x="477.82" y="55.18" width="247.11" height="247.11" transform="translate(-19.13 271.3) rotate(-25.04)"/><rect class="cls-19" x="502.37" y="54.87" width="247.69" height="247.69" transform="translate(-18.77 268.58) rotate(-23.86)"/><rect class="cls-20" x="526.87" y="54.5" width="248.38" height="248.38" transform="translate(-18.54 264.96) rotate(-22.69)"/><rect class="cls-21" x="551.31" y="54.09" width="249.17" height="249.17" transform="translate(-18.42 260.45) rotate(-21.52)"/><rect class="cls-22" x="575.7" y="53.62" width="250.06" height="250.06" transform="translate(-18.36 255.07) rotate(-20.37)"/><rect class="cls-23" x="600.04" y="53.1" width="251.05" height="251.05" transform="translate(-18.36 248.83) rotate(-19.22)"/><rect class="cls-24" x="624.34" y="52.53" width="252.14" height="252.14" transform="translate(-18.37 241.75) rotate(-18.08)"/><rect class="cls-25" x="648.58" y="51.91" width="253.33" height="253.33" transform="translate(-18.38 233.84) rotate(-16.96)"/><path class="cls-26" d="M259.09,241.78h-105l-9.57-42.29L256.62,66.12h60.2V197H344.3v44.76H316.82v42H259.09Zm0-44.45V135l-51.86,62.36Z"/><path class="cls-26" d="M365.6,176.33v-.61c0-61.13,38.9-112.38,100.34-112.38S565.65,114,565.65,175.1v.62c0,61.12-38.59,112.37-100.33,112.37C403.88,288.09,365.6,237.46,365.6,176.33Zm139.85,0v-.61c0-34.58-16.36-59.58-40.13-59.58s-39.52,24.38-39.52,59v.62c0,34.88,16.36,59.27,40.14,59.27C490,235,505.45,210.6,505.45,176.33Z"/><path class="cls-26" d="M697.17,241.78h-105l-9.57-42.29L694.7,66.12h60.2V197h27.47v44.76H754.9v42H697.17Zm0-44.45V135L645.3,197.33Z"/></svg>