<svg xmlns="http://www.w3.org/2000/svg" viewBox="0 0 730.39 572.17"><defs><style>.cls-1{fill:#ff1792;}.cls-2{fill:#f31d9a;}.cls-3{fill:#e722a2;}.cls-4{fill:#db28a9;}.cls-5{fill:#ce2eb1;}.cls-6{fill:#c234b9;}.cls-7{fill:#b639c1;}.cls-8{fill:#aa3fc9;}.cls-9{fill:#9e45d0;}.cls-10{fill:#924ad8;}.cls-11{fill:#8650e0;}.cls-12{fill:#7956e8;}.cls-13{fill:#6d5cef;}.cls-14{fill:#6161f7;}.cls-15{fill:#5567ff;}.cls-16{fill:#fff;}</style></defs><g id="Ebene_2" data-name="Ebene 2"><g id="Ebene_1-2" data-name="Ebene 1"><rect class="cls-1" x="43.44" y="43.44" width="284.57" height="284.57" transform="translate(-56.7 286.81) rotate(-67.63)"/><rect class="cls-2" x="64.99" y="53.68" width="290.8" height="290.8" transform="translate(-49.16 327.65) rotate(-69.77)"/><rect class="cls-3" x="86.34" y="63.74" width="297.41" height="297.41" transform="translate(-40.14 369.44) rotate(-71.82)"/><rect class="cls-4" x="107.51" y="73.61" width="304.38" height="304.38" transform="translate(-29.69 412.03) rotate(-73.77)"/><rect class="cls-5" x="128.51" y="83.31" width="311.69" height="311.69" transform="translate(-17.88 455.27) rotate(-75.63)"/><rect class="cls-6" x="149.36" y="92.85" width="319.32" height="319.32" transform="translate(-4.78 499.05) rotate(-77.41)"/><rect class="cls-7" x="170.06" y="102.25" width="327.24" height="327.24" transform="translate(9.51 543.25) rotate(-79.1)"/><rect class="cls-8" x="190.62" y="111.51" width="335.43" height="335.43" transform="translate(24.93 587.79) rotate(-80.71)"/><rect class="cls-9" x="211.06" y="120.65" width="343.87" height="343.87" transform="translate(41.4 632.59) rotate(-82.24)"/><rect class="cls-10" x="231.38" y="129.67" width="352.54" height="352.54" transform="translate(58.84 677.57) rotate(-83.7)"/><rect class="cls-11" x="251.6" y="138.58" width="361.44" height="361.44" transform="translate(77.19 722.69) rotate(-85.09)"/><rect class="cls-12" x="271.71" y="147.39" width="370.53" height="370.53" transform="translate(96.36 767.9) rotate(-86.41)"/><rect class="cls-13" x="291.72" y="156.1" width="379.81" height="379.81" transform="translate(116.29 813.15) rotate(-87.67)"/><rect class="cls-14" x="311.66" y="164.73" width="389.27" height="389.27" transform="matrix(0.02, -1, 1, 0.02, 136.94, 858.42)"/><rect class="cls-15" x="331.51" y="173.28" width="398.89" height="398.89"/><path class="cls-16" d="M505.48,406.92H432.62V351.37h72.86V278.91h57.16v72.46H635.5v55.55H562.64v72.46H505.48Z"/></g></g></svg>