<svg xmlns="http://www.w3.org/2000/svg" viewBox="0 0 785.53 794.44"><defs><style>.cls-1{fill:#0070e9;}.cls-2{fill:#0085ff;}.cls-3{fill:#39f;}.cls-4{fill:#e84519;}</style></defs><g id="Ebene_2" data-name="Ebene 2"><g id="Ebene_1-2" data-name="Ebene 1"><polygon class="cls-1" points="0 194.8 367.36 389.19 367.36 794.44 0 605 0 194.8"/><polygon class="cls-2" points="367.36 389.19 741.32 196.45 741.32 609.12 367.36 794.44 367.36 389.19"/><polygon class="cls-3" points="367.36 389.19 741.32 196.45 367.36 0 0 194.8 367.36 389.19"/><path class="cls-4" d="M542.8,416.32l3.65-3.64C639,409,674,385,674,346.34v-1.45c0-32.8-24.06-51.76-67.06-51.76-40.82,0-75.08,16-109.34,50.3l-67.06-73.62c43-46.65,99.13-78.72,178.59-78.72,105,0,176.39,53.94,176.39,150.88v1.46c0,92.57-64.14,131.2-143.59,146.51l-8,44.46H559.57Zm-7.28,174.94H653.6V707.89H535.52Z"/></g></g></svg>