<svg xmlns="http://www.w3.org/2000/svg" viewBox="0 0 1161.77 335.35"><defs><style>.cls-1{fill:#0085ff;}.cls-2{fill:#0070e9;}.cls-3{fill:#39f;}</style></defs><g id="Ebene_2" data-name="Ebene 2"><g id="Ebene_1-2" data-name="Ebene 1"><path class="cls-1" d="M388.94,165.36V165c0-37.33,29.07-67.9,68.84-67.9,23.45,0,38.08,6.38,51.58,18L491.17,137c-9.94-8.44-19.32-13.31-34.33-13.31-21,0-37.7,18.56-37.7,40.89V165c0,24,16.51,41.64,39.77,41.64,10.69,0,19.88-2.62,27.19-7.87V180H457V155h57v57C500.55,223.51,482,232.88,458,232.88,417.08,232.88,388.94,204.37,388.94,165.36Z"/><path class="cls-1" d="M550.63,99.33h28.89v131.3H550.63Z"/><path class="cls-1" d="M619.85,99.33h100v26.26H648.74v27.95h62.65V179.8H648.74v50.83H619.85Z"/><path class="cls-1" d="M753.22,99.33h55.9c15,0,26.82,4.31,34.33,11.63a29.31,29.31,0,0,1,8.44,21v.37c0,17.07-10.51,25.89-20.82,30.39,15.57,4.5,28.13,13.88,28.13,31.7v.38c0,22.51-18.94,35.82-47.64,35.82H753.22ZM836.88,134c0-12.94-10.31-21.38-29.07-21.38h-40v45.2h38.83c18,0,30.2-7.87,30.2-23.44Zm7.32,59.46c0-14.25-11.82-22.51-34.89-22.51H767.85v46.34h44.08c20.08,0,32.27-8.63,32.27-23.45Z"/><path class="cls-1" d="M889.59,165.36V165c0-36.2,27.2-67.9,67.16-67.9s66.77,31.32,66.77,67.53V165c0,36.2-27.19,67.9-67.15,67.9S889.59,201.56,889.59,165.36Zm118.55,0V165c0-29.82-21.76-54.21-51.77-54.21S905,134.78,905,164.61V165c0,29.83,21.75,54.21,51.77,54.21S1008.14,195.18,1008.14,165.36Z"/><path class="cls-1" d="M1159.9,99.33l-48.4,64.34,50.27,67h-17.63l-42-56.64-42,56.64H1043l50.27-67-48.4-64.34h17.45l40.14,54,40.14-54Z"/><polygon class="cls-2" points="0 82.23 155.07 164.28 155.07 335.35 0 255.38 0 82.23"/><polygon class="cls-1" points="155.07 164.28 312.92 82.92 312.92 257.12 155.07 335.35 155.07 164.28"/><polygon class="cls-3" points="155.07 164.28 312.92 82.92 155.07 0 0 82.23 155.07 164.28"/></g></g></svg>