<svg xmlns="http://www.w3.org/2000/svg" viewBox="0 0 1161.87 335.69"><defs><style>.cls-1{fill:#1d1d1b;}.cls-2{fill:#3c3c3b;}</style></defs><g id="Ebene_2" data-name="Ebene 2"><g id="Ebene_1-2" data-name="Ebene 1"><polygon class="cls-1" points="0 82.31 155.23 164.45 155.23 335.69 0 255.64 0 82.31"/><polygon class="cls-1" points="155.23 164.45 313.25 83.01 313.25 257.38 155.23 335.69 155.23 164.45"/><polygon class="cls-2" points="155.23 164.45 313.25 83.01 155.23 0 0 82.31 155.23 164.45"/><path d="M389,165.66v-.37c0-37.33,29.08-67.91,68.84-67.91,23.45,0,38.08,6.38,51.59,18l-18.2,22C481.32,128.9,471.94,124,456.93,124c-21,0-37.7,18.57-37.7,40.89v.38c0,24,16.51,41.64,39.77,41.64,10.69,0,19.88-2.63,27.2-7.88V180.29H457.12V155.34h57v57c-13.5,11.44-32.07,20.82-56.08,20.82C417.17,233.19,389,204.68,389,165.66Z"/><path d="M550.73,99.63h28.88V230.94H550.73Z"/><path d="M620,99.63h100v26.26H648.83v28h62.65V180.1H648.83v50.84H620Z"/><path d="M753.32,99.63h55.89c15,0,26.83,4.32,34.33,11.63a29.34,29.34,0,0,1,8.44,21v.38c0,17.07-10.5,25.88-20.82,30.38,15.57,4.51,28.14,13.88,28.14,31.7v.38c0,22.51-18.95,35.83-47.65,35.83H753.32ZM837,134.33C837,121.39,826.66,113,807.9,113H768v45.21h38.82c18,0,30.2-7.88,30.2-23.45Zm7.32,59.47c0-14.26-11.82-22.51-34.89-22.51H768v46.33H812c20.07,0,32.26-8.63,32.26-23.45Z"/><path d="M889.69,165.66v-.37c0-36.21,27.19-67.91,67.15-67.91s66.78,31.33,66.78,67.53v.38c0,36.2-27.2,67.9-67.16,67.9S889.69,201.86,889.69,165.66Zm118.54,0v-.37c0-29.83-21.75-54.21-51.77-54.21s-51.39,24-51.39,53.83v.38c0,29.82,21.76,54.2,51.77,54.2S1008.23,195.48,1008.23,165.66Z"/><path d="M1160,99.63,1111.6,164l50.27,67h-17.64l-42-56.65-42,56.65h-17.07l50.27-67L1045,99.63h17.44l40.14,54,40.14-54Z"/></g></g></svg>